{
  "accessors": [
    {
      "bufferView": 2,
      "componentType": 5126,
      "count": 1972,
      "max": [
        0.1633853018283844,
        0.09913367033004761,
        0.08233034610748291
      ],
      "min": [
        -0.14673414826393127,
        -0.0991336777806282,
        -0.08233034610748291
      ],
      "type": "VEC3"
    },
    {
      "bufferView": 2,
      "byteOffset": 23664,
      "componentType": 5126,
      "count": 1972,
      "max": [
        1.0,
        1.0,
        0.7918792366981506
      ],
      "min": [
        -1.0,
        -1.0,
        -0.7092307806015015
      ],
      "type": "VEC3"
    },
    {
      "bufferView": 3,
      "componentType": 5126,
      "count": 1972,
      "max": [
        1.0,
        1.0,
        1.0,
        1.0
      ],
      "min": [
        -0.9999938607215881,
        -1.0,
        -1.0,
        -1.0
      ],
      "type": "VEC4"
    },
    {
      "bufferView": 1,
      "componentType": 5126,
      "count": 1972,
      "max": [
        0.9984313249588013,
        0.9772704839706421
      ],
      "min": [
        0.0015636831521987915,
        0.0015649506822228432
      ],
      "type": "VEC2"
    },
    {
      "bufferView": 0,
      "componentType": 5125,
      "count": 3420,
      "type": "SCALAR"
    }
  ],
  "asset": {
    "extras": {
      "author": "Duznot (https://sketchfab.com/duz_vr)",
      "license": "CC-BY-NC-SA-4.0 (http://creativecommons.org/licenses/by-nc-sa/4.0/)",
      "source": "https://sketchfab.com/3d-models/2023-glasses-7e7011f6e6cd49c38c8a760c6fde1bc7",
      "title": "2023 Glasses"
    },
    "generator": "Sketchfab-14.64.0",
    "version": "2.0"
  },
  "bufferViews": [
    {
      "buffer": 0,
      "byteLength": 13680,
      "name": "floatBufferViews",
      "target": 34963
    },
    {
      "buffer": 0,
      "byteLength": 15776,
      "byteOffset": 13680,
      "byteStride": 8,
      "name": "floatBufferViews",
      "target": 34962
    },
    {
      "buffer": 0,
      "byteLength": 47328,
      "byteOffset": 29456,
      "byteStride": 12,
      "name": "floatBufferViews",
      "target": 34962
    },
    {
      "buffer": 0,
      "byteLength": 31552,
      "byteOffset": 76784,
      "byteStride": 16,
      "name": "floatBufferViews",
      "target": 34962
    }
  ],
  "buffers": [
    {
      "byteLength": 108336,
      "uri": "scene.bin"
    }
  ],
  "extensionsUsed": [
    "KHR_materials_clearcoat",
    "KHR_materials_specular"
  ],
  "images": [
    {
      "uri": "textures/material_baseColor.jpeg"
    },
    {
      "uri": "textures/material_metallicRoughness.png"
    },
    {
      "uri": "textures/material_normal.png"
    }
  ],
  "materials": [
    {
      "doubleSided": true,
      "extensions": {
        "KHR_materials_clearcoat": {
          "clearcoatFactor": 0.38251572564649877,
          "clearcoatRoughnessFactor": 0.04
        },
        "KHR_materials_specular": {
          "specularColorFactor": [
            1.0,
            1.0,
            1.0
          ],
          "specularFactor": 0.3321432844090998
        }
      },
      "name": "material",
      "normalTexture": {
        "index": 2
      },
      "occlusionTexture": {
        "index": 1
      },
      "pbrMetallicRoughness": {
        "baseColorTexture": {
          "index": 0
        },
        "metallicFactor": 0.6532675972975185,
        "metallicRoughnessTexture": {
          "index": 1
        },
        "roughnessFactor": 0.5525227148227204
      }
    }
  ],
  "meshes": [
    {
      "name": "NYE Glasses_NYE_0",
      "primitives": [
        {
          "attributes": {
            "NORMAL": 1,
            "POSITION": 0,
            "TANGENT": 2,
            "TEXCOORD_0": 3
          },
          "indices": 4,
          "material": 0,
          "mode": 4
        }
      ]
    }
  ],
  "nodes": [
    {
      "children": [
        1
      ],
      "matrix": [
        0.9999451637268066,
        0.010473997332155704,
        2.3256945996043453e-18,
        0.0,
        0.0022840166930109262,
        -0.21805347502231576,
        -0.9759341478347778,
        0.0,
        -0.010221932083368301,
        0.9758806228637695,
        -0.21806544065475442,
        0.0,
        0.0,
        0.0,
        0.0,
        1.0
      ],
      "name": "Sketchfab_model"
    },
    {
      "children": [
        2
      ],
      "matrix": [
        0.009999999776482582,
        0.0,
        0.0,
        0.0,
        0.0,
        0.0,
        0.009999999776482582,
        0.0,
        0.0,
        -0.009999999776482582,
        0.0,
        0.0,
        0.0,
        0.0,
        0.0,
        1.0
      ],
      "name": "NYE glasses.fbx"
    },
    {
      "children": [
        3
      ],
      "name": "RootNode"
    },
    {
      "children": [
        4
      ],
      "matrix": [
        195.5952911376953,
        5.229307125113819e-15,
        -3.1596788630562265e-16,
        0.0,
        3.159664841500675e-16,
        -23.55068569501091,
        -194.17230265548844,
        0.0,
        -5.229307209835394e-15,
        194.17230265548844,
        -23.55068569501091,
        0.0,
        0.0,
        4.134281635284424,
        5.197447776794434,
        1.0
      ],
      "name": "NYE Glasses"
    },
    {
      "mesh": 0,
      "name": "NYE Glasses_NYE_0"
    }
  ],
  "samplers": [
    {
      "magFilter": 9729,
      "minFilter": 9987,
      "wrapS": 10497,
      "wrapT": 10497
    }
  ],
  "scene": 0,
  "scenes": [
    {
      "name": "Sketchfab_Scene",
      "nodes": [
        0
      ]
    }
  ],
  "textures": [
    {
      "sampler": 0,
      "source": 0
    },
    {
      "sampler": 0,
      "source": 1
    },
    {
      "sampler": 0,
      "source": 2
    }
  ]
}
