{
  "accessors": [
    {
      "bufferView": 2,
      "componentType": 5126,
      "count": 84,
      "max": [
        17.21427345275879,
        416.49676513671875,
        20.63566017150879
      ],
      "min": [
        -17.214271545410156,
        410.967529296875,
        13.692805290222168
      ],
      "type": "VEC3"
    },
    {
      "bufferView": 2,
      "byteOffset": 1008,
      "componentType": 5126,
      "count": 84,
      "max": [
        0.7441321611404419,
        -0.1516093760728836,
        0.9370951652526855
      ],
      "min": [
        -0.7441302537918091,
        -0.5408433675765991,
        -0.969679057598114
      ],
      "type": "VEC3"
    },
    {
      "bufferView": 1,
      "componentType": 5126,
      "count": 84,
      "max": [
        1.0,
        1.0
      ],
      "min": [
        0.0,
        0.0
      ],
      "type": "VEC2"
    },
    {
      "bufferView": 0,
      "componentType": 5125,
      "count": 258,
      "type": "SCALAR"
    },
    {
      "bufferView": 2,
      "byteOffset": 2016,
      "componentType": 5126,
      "count": 116,
      "max": [
        15.956555366516113,
        420.08685302734375,
        23.276416778564453
      ],
      "min": [
        -15.95655345916748,
        417.2326965332031,
        14.51907730102539
      ],
      "type": "VEC3"
    },
    {
      "bufferView": 2,
      "byteOffset": 3408,
      "componentType": 5126,
      "count": 116,
      "max": [
        0.9678645133972168,
        0.9976789355278015,
        0.9998233914375305
      ],
      "min": [
        -0.967873215675354,
        -0.9997418522834778,
        -0.9034188985824585
      ],
      "type": "VEC3"
    },
    {
      "bufferView": 1,
      "byteOffset": 672,
      "componentType": 5126,
      "count": 116,
      "max": [
        0.0,
        0.0
      ],
      "min": [
        0.0,
        0.0
      ],
      "type": "VEC2"
    },
    {
      "bufferView": 0,
      "byteOffset": 1032,
      "componentType": 5125,
      "count": 672,
      "type": "SCALAR"
    },
    {
      "bufferView": 2,
      "byteOffset": 4800,
      "componentType": 5126,
      "count": 98,
      "max": [
        17.045265197753906,
        416.1985778808594,
        20.655479431152344
      ],
      "min": [
        -17.045265197753906,
        412.99481201171875,
        14.128130912780762
      ],
      "type": "VEC3"
    },
    {
      "bufferView": 2,
      "byteOffset": 5976,
      "componentType": 5126,
      "count": 98,
      "max": [
        0.8062013387680054,
        0.008988049812614918,
        0.9984294176101685
      ],
      "min": [
        -0.8062390685081482,
        -0.9908440709114075,
        -0.3008352518081665
      ],
      "type": "VEC3"
    },
    {
      "bufferView": 1,
      "byteOffset": 1600,
      "componentType": 5126,
      "count": 98,
      "max": [
        0.0,
        0.0
      ],
      "min": [
        0.0,
        0.0
      ],
      "type": "VEC2"
    },
    {
      "bufferView": 0,
      "byteOffset": 3720,
      "componentType": 5125,
      "count": 420,
      "type": "SCALAR"
    },
    {
      "bufferView": 2,
      "byteOffset": 7152,
      "componentType": 5126,
      "count": 66,
      "max": [
        14.374139785766602,
        415.6717224121094,
        19.380399703979492
      ],
      "min": [
        -14.374139785766602,
        411.30047607421875,
        14.632719993591309
      ],
      "type": "VEC3"
    },
    {
      "bufferView": 2,
      "byteOffset": 7944,
      "componentType": 5126,
      "count": 66,
      "max": [
        0.9980170130729675,
        0.9778223633766174,
        0.9776312112808228
      ],
      "min": [
        -0.9980172514915466,
        -0.9720959067344666,
        -0.35656410455703735
      ],
      "type": "VEC3"
    },
    {
      "bufferView": 1,
      "byteOffset": 2384,
      "componentType": 5126,
      "count": 66,
      "max": [
        0.0,
        0.0
      ],
      "min": [
        0.0,
        0.0
      ],
      "type": "VEC2"
    },
    {
      "bufferView": 0,
      "byteOffset": 5400,
      "componentType": 5125,
      "count": 336,
      "type": "SCALAR"
    },
    {
      "bufferView": 2,
      "byteOffset": 8736,
      "componentType": 5126,
      "count": 50,
      "max": [
        1.8048862218856812,
        2.363966464996338,
        1.1546053886413574
      ],
      "min": [
        -21.960668563842773,
        -2.309130907058716,
        -0.3496384620666504
      ],
      "type": "VEC3"
    },
    {
      "bufferView": 2,
      "byteOffset": 9336,
      "componentType": 5126,
      "count": 50,
      "max": [
        0.6214110851287842,
        0.36937758326530457,
        0.9999925494194031
      ],
      "min": [
        -0.6214110851287842,
        -0.36937758326530457,
        0.783484697341919
      ],
      "type": "VEC3"
    },
    {
      "bufferView": 1,
      "byteOffset": 2912,
      "componentType": 5126,
      "count": 50,
      "max": [
        0.8224113583564758,
        0.8526842594146729
      ],
      "min": [
        0.1287604570388794,
        0.15903380513191223
      ],
      "type": "VEC2"
    },
    {
      "bufferView": 0,
      "byteOffset": 6744,
      "componentType": 5125,
      "count": 192,
      "type": "SCALAR"
    },
    {
      "bufferView": 2,
      "byteOffset": 9936,
      "componentType": 5126,
      "count": 456,
      "max": [
        45.16206741333008,
        280.558349609375,
        26.218751907348633
      ],
      "min": [
        -45.16206741333008,
        36.47091293334961,
        -30.743074417114258
      ],
      "type": "VEC3"
    },
    {
      "bufferView": 2,
      "byteOffset": 15408,
      "componentType": 5126,
      "count": 456,
      "max": [
        0.9999956488609314,
        0.402797669172287,
        0.9789443016052246
      ],
      "min": [
        -0.9999956488609314,
        -0.9988014698028564,
        -0.9965933561325073
      ],
      "type": "VEC3"
    },
    {
      "bufferView": 1,
      "byteOffset": 3312,
      "componentType": 5126,
      "count": 456,
      "max": [
        0.4391857981681824,
        0.333938866853714
      ],
      "min": [
        0.26901137828826904,
        0.02840602397918701
      ],
      "type": "VEC2"
    },
    {
      "bufferView": 0,
      "byteOffset": 7512,
      "componentType": 5125,
      "count": 2376,
      "type": "SCALAR"
    },
    {
      "bufferView": 2,
      "byteOffset": 20880,
      "componentType": 5126,
      "count": 612,
      "max": [
        98.22312927246094,
        395.0015869140625,
        46.17607498168945
      ],
      "min": [
        -98.22312927246094,
        275.47161865234375,
        -28.692913055419922
      ],
      "type": "VEC3"
    },
    {
      "bufferView": 2,
      "byteOffset": 28224,
      "componentType": 5126,
      "count": 612,
      "max": [
        0.9960601329803467,
        0.9608147740364075,
        0.9999762177467346
      ],
      "min": [
        -0.9960599541664124,
        -0.9989150166511536,
        -0.997708261013031
      ],
      "type": "VEC3"
    },
    {
      "bufferView": 1,
      "byteOffset": 6960,
      "componentType": 5126,
      "count": 612,
      "max": [
        0.5963718295097351,
        0.5009716749191284
      ],
      "min": [
        0.3257817029953003,
        0.26527464389801025
      ],
      "type": "VEC2"
    },
    {
      "bufferView": 0,
      "byteOffset": 17016,
      "componentType": 5125,
      "count": 3186,
      "type": "SCALAR"
    },
    {
      "bufferView": 2,
      "byteOffset": 35568,
      "componentType": 5126,
      "count": 1151,
      "max": [
        178.69473266601563,
        442.6876220703125,
        27.252351760864258
      ],
      "min": [
        -178.69473266601563,
        319.0881652832031,
        -18.701114654541016
      ],
      "type": "VEC3"
    },
    {
      "bufferView": 2,
      "byteOffset": 49380,
      "componentType": 5126,
      "count": 1151,
      "max": [
        0.9992038011550903,
        0.999969482421875,
        0.9999762177467346
      ],
      "min": [
        -0.9992038011550903,
        -0.9993531107902527,
        -0.9998030662536621
      ],
      "type": "VEC3"
    },
    {
      "bufferView": 1,
      "byteOffset": 11856,
      "componentType": 5126,
      "count": 1151,
      "max": [
        0.9895210862159729,
        0.799772322177887
      ],
      "min": [
        0.4524281322956085,
        0.29948750138282776
      ],
      "type": "VEC2"
    },
    {
      "bufferView": 0,
      "byteOffset": 29760,
      "componentType": 5125,
      "count": 4914,
      "type": "SCALAR"
    },
    {
      "bufferView": 2,
      "byteOffset": 63192,
      "componentType": 5126,
      "count": 212,
      "max": [
        31.031490325927734,
        36.47091293334961,
        28.62784194946289
      ],
      "min": [
        -31.031490325927734,
        0.22721290588378906,
        -24.876066207885742
      ],
      "type": "VEC3"
    },
    {
      "bufferView": 2,
      "byteOffset": 65736,
      "componentType": 5126,
      "count": 212,
      "max": [
        0.9996569156646729,
        0.9625735282897949,
        0.9278282523155212
      ],
      "min": [
        -0.9996569156646729,
        -0.9997265338897705,
        -0.9723571538925171
      ],
      "type": "VEC3"
    },
    {
      "bufferView": 1,
      "byteOffset": 21064,
      "componentType": 5126,
      "count": 212,
      "max": [
        0.31694474816322327,
        0.039773017168045044
      ],
      "min": [
        0.2739264667034149,
        0.008151918649673462
      ],
      "type": "VEC2"
    },
    {
      "bufferView": 0,
      "byteOffset": 49416,
      "componentType": 5125,
      "count": 1116,
      "type": "SCALAR"
    },
    {
      "bufferView": 2,
      "byteOffset": 68280,
      "componentType": 5126,
      "count": 634,
      "max": [
        77.26792907714844,
        450.4652404785156,
        27.26603126525879
      ],
      "min": [
        -77.2679443359375,
        284.5895690917969,
        -69.46199798583984
      ],
      "type": "VEC3"
    },
    {
      "bufferView": 2,
      "byteOffset": 75888,
      "componentType": 5126,
      "count": 634,
      "max": [
        0.9990312457084656,
        0.9908112287521362,
        0.9976340532302856
      ],
      "min": [
        -0.9990311861038208,
        -0.9629946947097778,
        -0.9967165589332581
      ],
      "type": "VEC3"
    },
    {
      "bufferView": 1,
      "byteOffset": 22760,
      "componentType": 5126,
      "count": 634,
      "max": [
        1.000000238418579,
        0.9375001192092896
      ],
      "min": [
        0.0,
        0.12499979138374329
      ],
      "type": "VEC2"
    },
    {
      "bufferView": 0,
      "byteOffset": 53880,
      "componentType": 5125,
      "count": 3393,
      "type": "SCALAR"
    }
  ],
  "asset": {
    "extras": {
      "author": "BloedSkrif (https://sketchfab.com/BloedSkrif)",
      "license": "CC-BY-4.0 (http://creativecommons.org/licenses/by/4.0/)",
      "source": "https://sketchfab.com/3d-models/anime-woman-harphy-842c31a561484cb78a88523ddbb7946c",
      "title": "Anime Woman - Harphy"
    },
    "generator": "Sketchfab-14.66.0",
    "version": "2.0"
  },
  "bufferViews": [
    {
      "buffer": 0,
      "byteLength": 67452,
      "name": "floatBufferViews",
      "target": 34963
    },
    {
      "buffer": 0,
      "byteLength": 27832,
      "byteOffset": 67452,
      "byteStride": 8,
      "name": "floatBufferViews",
      "target": 34962
    },
    {
      "buffer": 0,
      "byteLength": 83496,
      "byteOffset": 95284,
      "byteStride": 12,
      "name": "floatBufferViews",
      "target": 34962
    }
  ],
  "buffers": [
    {
      "byteLength": 178780,
      "uri": "scene.bin"
    }
  ],
  "extensionsUsed": [
    "KHR_materials_emissive_strength"
  ],
  "images": [
    {
      "uri": "textures/material_baseColor.png"
    },
    {
      "uri": "textures/Body_02_baseColor.png"
    }
  ],
  "materials": [
    {
      "doubleSided": true,
      "name": "Material.002",
      "pbrMetallicRoughness": {
        "baseColorFactor": [
          0.142402,
          0.115749,
          0.0830674,
          1.0
        ],
        "metallicFactor": 0.0,
        "roughnessFactor": 0.9733783101681194
      }
    },
    {
      "doubleSided": true,
      "name": "Material.001",
      "pbrMetallicRoughness": {
        "baseColorFactor": [
          0.8,
          0.8,
          0.8,
          1.0
        ],
        "metallicFactor": 0.0,
        "roughnessFactor": 0.8211145618000169
      }
    },
    {
      "doubleSided": true,
      "extensions": {
        "KHR_materials_emissive_strength": {
          "emissiveStrength": 1.4
        }
      },
      "name": "material",
      "pbrMetallicRoughness": {
        "baseColorTexture": {
          "index": 0
        },
        "metallicFactor": 0.0,
        "roughnessFactor": 0.9337032730454999
      }
    },
    {
      "doubleSided": true,
      "name": "pants",
      "pbrMetallicRoughness": {
        "baseColorFactor": [
          0.0420202,
          0.0221595,
          0.0138321,
          1.0
        ],
        "metallicFactor": 0.0,
        "roughnessFactor": 0.994843870692
      }
    },
    {
      "doubleSided": true,
      "name": "Clothes",
      "pbrMetallicRoughness": {
        "baseColorFactor": [
          0.0549689,
          0.0549689,
          0.0549689,
          1.0
        ],
        "metallicFactor": 0.0,
        "roughnessFactor": 0.9904791072363827
      }
    },
    {
      "doubleSided": true,
      "name": "Body_02",
      "pbrMetallicRoughness": {
        "baseColorTexture": {
          "index": 1
        },
        "metallicFactor": 0.0,
        "roughnessFactor": 0.8614359353944898
      }
    },
    {
      "doubleSided": true,
      "name": "boots",
      "pbrMetallicRoughness": {
        "baseColorFactor": [
          0.0159899,
          0.0159899,
          0.0159899,
          1.0
        ],
        "metallicFactor": 0.0,
        "roughnessFactor": 0.9960832903961871
      }
    },
    {
      "doubleSided": true,
      "name": "Hair",
      "pbrMetallicRoughness": {
        "baseColorFactor": [
          0.7,
          0.355,
          0.175,
          1.0
        ],
        "metallicFactor": 0.0,
        "roughnessFactor": 0.9071246929477484
      }
    }
  ],
  "meshes": [
    {
      "name": "Eyelashes_Material.002_0",
      "primitives": [
        {
          "attributes": {
            "NORMAL": 1,
            "POSITION": 0,
            "TEXCOORD_0": 2
          },
          "indices": 3,
          "material": 0,
          "mode": 4
        }
      ]
    },
    {
      "name": "Eye_brows_Material.002_0",
      "primitives": [
        {
          "attributes": {
            "NORMAL": 5,
            "POSITION": 4,
            "TEXCOORD_0": 6
          },
          "indices": 7,
          "material": 0,
          "mode": 4
        }
      ]
    },
    {
      "name": "Eye_lashes_Material.002_0",
      "primitives": [
        {
          "attributes": {
            "NORMAL": 9,
            "POSITION": 8,
            "TEXCOORD_0": 10
          },
          "indices": 11,
          "material": 0,
          "mode": 4
        }
      ]
    },
    {
      "name": "Eye_sockets_Material.001_0",
      "primitives": [
        {
          "attributes": {
            "NORMAL": 13,
            "POSITION": 12,
            "TEXCOORD_0": 14
          },
          "indices": 15,
          "material": 1,
          "mode": 4
        }
      ]
    },
    {
      "name": "Iris_Eye_0",
      "primitives": [
        {
          "attributes": {
            "NORMAL": 17,
            "POSITION": 16,
            "TEXCOORD_0": 18
          },
          "indices": 19,
          "material": 2,
          "mode": 4
        }
      ]
    },
    {
      "name": "Body.002_pants_0",
      "primitives": [
        {
          "attributes": {
            "NORMAL": 21,
            "POSITION": 20,
            "TEXCOORD_0": 22
          },
          "indices": 23,
          "material": 3,
          "mode": 4
        }
      ]
    },
    {
      "name": "Body.002_Clothes_0",
      "primitives": [
        {
          "attributes": {
            "NORMAL": 25,
            "POSITION": 24,
            "TEXCOORD_0": 26
          },
          "indices": 27,
          "material": 4,
          "mode": 4
        }
      ]
    },
    {
      "name": "Body.002_Body_02_0",
      "primitives": [
        {
          "attributes": {
            "NORMAL": 29,
            "POSITION": 28,
            "TEXCOORD_0": 30
          },
          "indices": 31,
          "material": 5,
          "mode": 4
        }
      ]
    },
    {
      "name": "Body.002_boots_0",
      "primitives": [
        {
          "attributes": {
            "NORMAL": 33,
            "POSITION": 32,
            "TEXCOORD_0": 34
          },
          "indices": 35,
          "material": 6,
          "mode": 4
        }
      ]
    },
    {
      "name": "Sphere.003_Hair_0",
      "primitives": [
        {
          "attributes": {
            "NORMAL": 37,
            "POSITION": 36,
            "TEXCOORD_0": 38
          },
          "indices": 39,
          "material": 7,
          "mode": 4
        }
      ]
    }
  ],
  "nodes": [
    {
      "children": [
        1
      ],
      "matrix": [
        1.0,
        0.0,
        0.0,
        0.0,
        0.0,
        2.220446049250313e-16,
        -1.0,
        0.0,
        0.0,
        1.0,
        2.220446049250313e-16,
        0.0,
        0.0,
        0.0,
        0.0,
        1.0
      ],
      "name": "Sketchfab_model"
    },
    {
      "children": [
        2
      ],
      "matrix": [
        0.009999999776482582,
        0.0,
        0.0,
        0.0,
        0.0,
        0.0,
        0.009999999776482582,
        0.0,
        0.0,
        -0.009999999776482582,
        0.0,
        0.0,
        0.0,
        0.0,
        0.0,
        1.0
      ],
      "name": "49bb7552586a4abca462445c3c3c6ce9.fbx"
    },
    {
      "children": [
        3,
        5,
        7,
        9,
        11,
        13,
        18
      ],
      "name": "RootNode"
    },
    {
      "children": [
        4
      ],
      "matrix": [
        1.0,
        0.0,
        0.0,
        0.0,
        0.0,
        1.0,
        0.0,
        0.0,
        0.0,
        0.0,
        1.0,
        0.0,
        -7.450580596923828e-07,
        -4.76837158203125e-05,
        0.0,
        1.0
      ],
      "name": "Eyelashes"
    },
    {
      "mesh": 0,
      "name": "Eyelashes_Material.002_0"
    },
    {
      "children": [
        6
      ],
      "name": "Eye_brows"
    },
    {
      "mesh": 1,
      "name": "Eye_brows_Material.002_0"
    },
    {
      "children": [
        8
      ],
      "name": "Eye_lashes"
    },
    {
      "mesh": 2,
      "name": "Eye_lashes_Material.002_0"
    },
    {
      "children": [
        10
      ],
      "name": "Eye_sockets"
    },
    {
      "mesh": 3,
      "name": "Eye_sockets_Material.001_0"
    },
    {
      "children": [
        12
      ],
      "matrix": [
        1.0,
        0.0,
        0.0,
        0.0,
        0.0,
        1.0,
        0.0,
        0.0,
        0.0,
        0.0,
        1.0,
        0.0,
        10.077890396118164,
        413.49554443359375,
        17.827877044677734,
        1.0
      ],
      "name": "Iris"
    },
    {
      "mesh": 4,
      "name": "Iris_Eye_0"
    },
    {
      "children": [
        14,
        15,
        16,
        17
      ],
      "name": "Body.002"
    },
    {
      "mesh": 5,
      "name": "Body.002_pants_0"
    },
    {
      "mesh": 6,
      "name": "Body.002_Clothes_0"
    },
    {
      "mesh": 7,
      "name": "Body.002_Body_02_0"
    },
    {
      "mesh": 8,
      "name": "Body.002_boots_0"
    },
    {
      "children": [
        19
      ],
      "matrix": [
        1.0,
        0.0,
        0.0,
        0.0,
        0.0,
        1.0,
        0.0,
        0.0,
        0.0,
        0.0,
        1.0,
        0.0,
        -5.293955920339377e-21,
        -4.76837158203125e-05,
        -7.450580596923828e-06,
        1.0
      ],
      "name": "Sphere.003"
    },
    {
      "mesh": 9,
      "name": "Sphere.003_Hair_0"
    }
  ],
  "samplers": [
    {
      "magFilter": 9729,
      "minFilter": 9987,
      "wrapS": 10497,
      "wrapT": 10497
    }
  ],
  "scene": 0,
  "scenes": [
    {
      "name": "Sketchfab_Scene",
      "nodes": [
        0
      ]
    }
  ],
  "textures": [
    {
      "sampler": 0,
      "source": 0
    },
    {
      "sampler": 0,
      "source": 1
    }
  ]
}
